<svg width="40" height="40" viewBox="0 0 40 40" fill="none" xmlns="http://www.w3.org/2000/svg">
<path d="M0 20C0 8.95431 8.95431 0 20 0C31.0457 0 40 8.95431 40 20C40 31.0457 31.0457 40 20 40C8.95431 40 0 31.0457 0 20Z" fill="#F5F5F5"/>
<path d="M19.4697 12.4697C19.7626 12.1768 20.2374 12.1768 20.5303 12.4697C20.8232 12.7626 20.8232 13.2373 20.5303 13.5302L14.0605 19.9999L20.5303 26.4697C20.8232 26.7626 20.8232 27.2373 20.5303 27.5302C20.2374 27.8231 19.7626 27.8231 19.4697 27.5302L12.4697 20.5302C12.1768 20.2373 12.1768 19.7626 12.4697 19.4697L19.4697 12.4697Z" fill="#333333"/>
<path d="M27 19.2499C27.4142 19.2499 27.75 19.5857 27.75 19.9999C27.75 20.4142 27.4142 20.7499 27 20.7499H13C12.5858 20.7499 12.25 20.4142 12.25 19.9999C12.25 19.5857 12.5858 19.2499 13 19.2499H27Z" fill="#333333"/>
</svg>
