<svg width="20" height="20" viewBox="0 0 20 20" fill="none" xmlns="http://www.w3.org/2000/svg">
<path d="M2.91862 1.87305C3.07152 1.87389 3.22233 1.90985 3.36133 1.9764L3.36214 1.97477L18.3621 9.05811C18.4959 9.12139 18.6143 9.21243 18.7096 9.32422L18.7967 9.44303L18.8667 9.57243C18.927 9.70637 18.9587 9.85249 18.9587 10.0005C18.9586 10.1976 18.9022 10.3906 18.7967 10.5571C18.7176 10.6821 18.6133 10.7887 18.4907 10.8696L18.3621 10.9421L3.36214 18.0254L3.36133 18.0238C3.17499 18.1127 2.96677 18.1458 2.76237 18.1157C2.55601 18.0853 2.36335 17.9932 2.2098 17.8521C2.05637 17.7109 1.94893 17.5269 1.90137 17.3239C1.85427 17.1227 1.86903 16.9124 1.94206 16.7192L4.30941 10.3634C4.38575 10.1583 4.39521 9.93507 4.33789 9.72542L4.30941 9.63672L1.94043 3.28092L1.94125 3.28011C1.86834 3.08713 1.85356 2.87726 1.90056 2.67627L1.94694 2.52734C2.00455 2.38308 2.0944 2.25325 2.2098 2.1473C2.36373 2.00599 2.5564 1.9137 2.76319 1.88363L2.91862 1.87305ZM5.48047 9.20052C5.67253 9.71632 5.67252 10.2838 5.48047 10.7996L3.29053 16.6761L17.4287 9.99967L3.28972 3.32243L5.48047 9.20052Z" fill="#737373"/>
<path d="M18.3333 9.37511C18.6785 9.37511 18.9587 9.65531 18.9587 10.0005C18.9587 10.3457 18.6785 10.6251 18.3333 10.6251H4.99994C4.65476 10.6251 4.37494 10.3453 4.37494 10.0001C4.37494 9.65493 4.65476 9.37511 4.99994 9.37511H18.3333Z" fill="#737373"/>
</svg>
