<svg width="24" height="24" viewBox="0 0 24 24" fill="none" xmlns="http://www.w3.org/2000/svg">
<path d="M13.3753 1.25307C13.5854 1.23239 13.7975 1.26536 13.9915 1.34877L14.0872 1.39467L14.178 1.44838C14.3555 1.5635 14.5013 1.72173 14.6009 1.90835L14.6458 2.00405L14.6839 2.10268C14.7617 2.33653 14.7691 2.58912 14.7034 2.82827C14.7008 2.83791 14.6977 2.84803 14.6946 2.85756L12.7747 8.87807C12.771 8.88963 12.7662 8.90089 12.762 8.91225C12.7479 8.95012 12.7433 8.99129 12.7483 9.03139C12.7534 9.07141 12.7682 9.10962 12.7913 9.14272C12.8144 9.17591 12.8453 9.20316 12.8811 9.22182C12.917 9.24046 12.9569 9.25027 12.9974 9.25014H19.9993C20.3297 9.24941 20.654 9.34203 20.9339 9.51772C21.2141 9.69371 21.4384 9.94578 21.5813 10.2443C21.7243 10.543 21.7804 10.8763 21.7415 11.2052C21.7026 11.5341 21.5712 11.8455 21.3626 12.1027C21.3486 12.1199 21.3331 12.1365 21.3177 12.1525L11.4183 22.3517L11.4173 22.3507C11.2346 22.5479 10.9939 22.6826 10.7288 22.7316C10.4501 22.783 10.1623 22.7383 9.91239 22.6046C9.66237 22.4709 9.4647 22.2558 9.35282 21.9953C9.24117 21.7349 9.22111 21.4442 9.29618 21.171L9.30497 21.1417L11.2249 15.1222L11.2376 15.0871C11.2516 15.0494 11.2562 15.0088 11.2513 14.9689C11.2462 14.9288 11.2314 14.8898 11.2083 14.8566C11.1852 14.8236 11.1542 14.7971 11.1184 14.7785C11.0826 14.7598 11.0427 14.75 11.0022 14.7501H3.99931C3.6692 14.7507 3.34534 14.6571 3.06571 14.4816C2.78542 14.3055 2.56113 14.0536 2.41825 13.755C2.2753 13.4563 2.21923 13.123 2.25809 12.7941C2.29699 12.4655 2.4286 12.1546 2.637 11.8976L2.68192 11.8478L12.5813 1.6476C12.7641 1.45026 13.0056 1.31676 13.2708 1.26772L13.3753 1.25307ZM3.79423 12.8537C3.76931 12.8881 3.75334 12.9285 3.74833 12.9708C3.74286 13.0177 3.75048 13.065 3.77079 13.1076C3.79119 13.1502 3.82356 13.1859 3.86356 13.2111C3.90363 13.2362 3.95004 13.2503 3.99735 13.2501H10.9993C11.2817 13.2495 11.5603 13.3171 11.8108 13.4474C12.0619 13.578 12.2771 13.7679 12.4388 14.0001C12.6005 14.2324 12.7042 14.5005 12.7395 14.7814C12.7733 15.0498 12.7418 15.3213 12.6526 15.5763L12.6546 15.5773L11.0638 20.5626L20.2044 11.1447C20.2291 11.1104 20.2462 11.0715 20.2513 11.0294C20.2568 10.9825 20.2492 10.9344 20.2288 10.8917C20.2084 10.8491 20.1761 10.8134 20.136 10.7882C20.096 10.7631 20.0495 10.75 20.0022 10.7501H12.9993C12.7172 10.7506 12.439 10.6821 12.1888 10.5519C11.9379 10.4214 11.7225 10.2321 11.5608 10.0001C11.3991 9.76792 11.2955 9.49964 11.26 9.21889C11.2262 8.95011 11.2566 8.6774 11.346 8.42202L12.9339 3.43667L3.79423 12.8537Z" fill="#333333"/>
</svg>
