<svg width="24" height="24" viewBox="0 0 24 24" fill="none" xmlns="http://www.w3.org/2000/svg">
<path d="M13.3752 1.25312C13.5857 1.23238 13.7982 1.26517 13.9924 1.34882L14.0872 1.39472L14.179 1.44843C14.3562 1.5635 14.5013 1.722 14.6008 1.90839L14.6467 2.00409L14.6838 2.10273C14.7616 2.3366 14.7691 2.58913 14.7034 2.82831C14.7007 2.83798 14.6976 2.84806 14.6946 2.85761L13.3176 7.17499C13.1917 7.56946 12.7698 7.78706 12.3752 7.66132C11.9807 7.53546 11.7622 7.11352 11.8879 6.71894L12.9348 3.43671L11.051 5.37812C10.7625 5.67535 10.2877 5.68223 9.99048 5.39374C9.69345 5.10523 9.68643 4.63036 9.97486 4.33319L12.5813 1.64765C12.7641 1.45025 13.0055 1.31682 13.2708 1.26777L13.3752 1.25312Z" fill="#333333"/>
<path d="M19.9997 9.24986C20.3299 9.24916 20.6535 9.34195 20.9333 9.51743C21.2136 9.6934 21.4388 9.94547 21.5817 10.244C21.7246 10.5427 21.7797 10.8761 21.7409 11.2049C21.702 11.5338 21.5706 11.8452 21.362 12.1024C21.3481 12.1195 21.3334 12.1364 21.3181 12.1522L19.5983 13.9247C19.3099 14.2219 18.8351 14.2296 18.5378 13.9413C18.2406 13.6529 18.233 13.178 18.5212 12.8807L20.2048 11.1444C20.2294 11.1101 20.2467 11.0712 20.2516 11.0292C20.2572 10.9822 20.2496 10.9341 20.2292 10.8915C20.2088 10.8489 20.1764 10.813 20.1364 10.7879C20.0964 10.7628 20.0499 10.7497 20.0026 10.7499H15.6559C15.2417 10.7499 14.9059 10.4141 14.9059 9.99986C14.9059 9.58564 15.2417 9.24986 15.6559 9.24986H19.9997Z" fill="#333333"/>
<path d="M7.18892 7.2044C7.47743 6.90728 7.95228 6.9003 8.24946 7.18878C8.54658 7.47729 8.55356 7.95214 8.26509 8.24932L3.79438 12.8538C3.7695 12.8883 3.75349 12.9287 3.74849 12.971C3.74304 13.0178 3.75062 13.0652 3.77095 13.1077C3.79135 13.1504 3.8237 13.1861 3.86372 13.2112C3.90379 13.2364 3.9502 13.2505 3.99751 13.2503H10.9995C11.2819 13.2497 11.5604 13.3172 11.811 13.4476C12.062 13.5782 12.2772 13.7681 12.4389 14.0003C12.6006 14.2326 12.7043 14.5007 12.7397 14.7815C12.7734 15.0499 12.7419 15.3215 12.6528 15.5765L12.6547 15.5774L11.0649 20.5618L15.7348 15.7503C16.0233 15.4532 16.4982 15.4463 16.7954 15.7347C17.0926 16.0232 17.0994 16.498 16.811 16.7952L11.4184 22.3519L11.4174 22.3509C11.2347 22.548 10.994 22.6827 10.729 22.7317C10.4503 22.7832 10.1624 22.7384 9.91255 22.6048C9.66253 22.4711 9.46485 22.2559 9.35298 21.9954C9.2413 21.7351 9.22129 21.4443 9.29634 21.1712L9.30513 21.1419L11.225 15.1224L11.2377 15.0872C11.2518 15.0495 11.2564 15.0089 11.2514 14.969C11.2464 14.9289 11.2316 14.8899 11.2084 14.8567C11.1854 14.8236 11.1544 14.7963 11.1186 14.7776C11.0828 14.759 11.0428 14.7502 11.0024 14.7503H3.99946C3.66935 14.7509 3.3455 14.6573 3.06587 14.4817C2.78559 14.3057 2.5613 14.0537 2.41841 13.7552C2.27546 13.4565 2.21939 13.1231 2.25825 12.7942C2.29712 12.4656 2.42876 12.1548 2.63716 11.8978L2.68208 11.848L7.18892 7.2044Z" fill="#333333"/>
<path d="M1.46967 1.46959C1.76256 1.17669 2.23732 1.17669 2.53022 1.46959L22.5302 21.4696C22.8231 21.7625 22.8231 22.2372 22.5302 22.5301C22.2373 22.823 21.7626 22.823 21.4697 22.5301L1.46967 2.53014C1.17678 2.23724 1.17678 1.76248 1.46967 1.46959Z" fill="#333333"/>
</svg>
