<svg width="24" height="24" viewBox="0 0 24 24" fill="none" xmlns="http://www.w3.org/2000/svg">
<path d="M20.25 5C20.25 4.30964 19.6904 3.75 19 3.75H5C4.30964 3.75 3.75 4.30964 3.75 5V19C3.75 19.6904 4.30964 20.25 5 20.25H19C19.6904 20.25 20.25 19.6904 20.25 19V5ZM21.75 19C21.75 20.5188 20.5188 21.75 19 21.75H5C3.48122 21.75 2.25 20.5188 2.25 19V5C2.25 3.48122 3.48122 2.25 5 2.25H19C20.5188 2.25 21.75 3.48122 21.75 5V19Z" fill="#333333"/>
<path d="M10.25 9C10.25 8.30964 9.69036 7.75 9 7.75C8.30964 7.75 7.75 8.30964 7.75 9C7.75 9.69036 8.30964 10.25 9 10.25C9.69036 10.25 10.25 9.69036 10.25 9ZM11.75 9C11.75 10.5188 10.5188 11.75 9 11.75C7.48122 11.75 6.25 10.5188 6.25 9C6.25 7.48122 7.48122 6.25 9 6.25C10.5188 6.25 11.75 7.48122 11.75 9Z" fill="#333333"/>
<path d="M16.5 10.5784C17.2291 10.5784 17.9287 10.8677 18.4443 11.3831L21.5303 14.47C21.823 14.7629 21.8231 15.2377 21.5303 15.5306C21.2374 15.8233 20.7626 15.8233 20.4697 15.5306L17.3838 12.4446C17.1494 12.2103 16.8315 12.0784 16.5 12.0784C16.1685 12.0784 15.8506 12.2103 15.6162 12.4446L6.53027 21.5306C6.23742 21.8233 5.76258 21.8233 5.46973 21.5306C5.17688 21.2377 5.17698 20.7629 5.46973 20.47L14.5557 11.3841C15.0713 10.8687 15.7709 10.5784 16.5 10.5784Z" fill="#333333"/>
</svg>
