<svg width="20" height="20" viewBox="0 0 20 20" fill="none" xmlns="http://www.w3.org/2000/svg">
<path d="M14.5581 4.55812C14.8021 4.31404 15.1978 4.31404 15.4418 4.55812C15.6859 4.8022 15.6859 5.19783 15.4418 5.44191L5.44185 15.4419C5.19777 15.686 4.80214 15.686 4.55806 15.4419C4.31398 15.1978 4.31398 14.8022 4.55806 14.5581L14.5581 4.55812Z" fill="#737373"/>
<path d="M4.55806 4.55812C4.80214 4.31404 5.19777 4.31404 5.44185 4.55812L15.4418 14.5581C15.6859 14.8022 15.6859 15.1978 15.4418 15.4419C15.1978 15.686 14.8021 15.686 14.5581 15.4419L4.55806 5.44191C4.31398 5.19783 4.31398 4.8022 4.55806 4.55812Z" fill="#737373"/>
</svg>
