<svg width="24" height="24" viewBox="0 0 24 24" fill="none" xmlns="http://www.w3.org/2000/svg">
<path d="M17.0002 19.25C17.4144 19.25 17.7502 19.5858 17.7502 20C17.7502 20.4142 17.4144 20.75 17.0002 20.75H7.00019C6.58598 20.75 6.25019 20.4142 6.25019 20C6.25019 19.5858 6.58598 19.25 7.00019 19.25H17.0002Z" fill="#31674C"/>
<path d="M12.3605 9.6094C12.5765 9.25603 13.0374 9.14455 13.3908 9.36038C13.7442 9.57633 13.8557 10.0372 13.6398 10.3907C13.1929 11.122 13.0856 11.877 13.1262 12.6924C13.1467 13.1058 13.2043 13.5267 13.2746 13.9688C13.3429 14.3982 13.4273 14.8691 13.4826 15.3213C13.594 16.2319 13.6176 17.2416 13.1574 18.211C12.6904 19.1946 11.7874 20.0114 10.3107 20.6826C9.93373 20.854 9.48905 20.6875 9.31758 20.3106C9.14621 19.9336 9.31272 19.4889 9.68965 19.3174C10.9627 18.7388 11.5346 18.1305 11.802 17.5674C12.0761 16.99 12.0944 16.3307 11.9934 15.5039C11.9424 15.0876 11.8684 14.672 11.7941 14.2051C11.7219 13.7508 11.6529 13.264 11.6281 12.7666C11.5781 11.7603 11.7077 10.6779 12.3605 9.6094Z" fill="#31674C"/>
<path d="M3.86836 7.86175C6.8187 7.3349 8.63908 7.84611 9.9416 8.79339C11.2395 9.73743 12.0009 11.3297 12.5119 12.8627C12.5799 13.0668 12.5563 13.29 12.4484 13.476C12.3405 13.662 12.1583 13.7932 11.9475 13.8354C9.90464 14.2439 8.19474 14.2854 6.66523 13.4701C6.66109 13.4681 6.65667 13.4664 6.65254 13.4643C6.64997 13.4629 6.64729 13.4618 6.64472 13.4604C5.21496 12.7369 4.01822 11.2362 3.28242 8.81878C3.22 8.61368 3.24861 8.39128 3.36054 8.20843C3.47248 8.02559 3.65731 7.89944 3.86836 7.86175ZM9.05879 10.0063C8.26578 9.42966 7.09618 8.98163 5.00703 9.21136C5.60412 10.7222 6.38322 11.5837 7.15547 12.0317L7.33515 12.1293L7.35566 12.1401C8.25372 12.6236 9.30684 12.7264 10.7824 12.5141C10.3382 11.4226 9.7853 10.5347 9.05879 10.0063Z" fill="#31674C"/>
<path d="M18.9721 3.251C19.1813 3.24325 19.385 3.32317 19.5326 3.47171C19.6799 3.62013 19.7584 3.82335 19.7494 4.03225C19.6434 6.47129 18.9937 7.96664 17.8305 9.12991C17.811 9.14942 17.7905 9.16833 17.769 9.18557C16.6144 10.1092 15.0492 10.6433 13.0395 10.7491C12.8383 10.7596 12.641 10.689 12.4926 10.5528C12.3442 10.4165 12.257 10.2258 12.2504 10.0244C12.1996 8.45913 12.6241 6.91494 13.4682 5.59573C13.4902 5.56127 13.515 5.52848 13.5424 5.49807C14.0419 4.94312 14.6701 4.39838 15.557 3.98343C16.4402 3.57035 17.5428 3.30398 18.9721 3.251ZM18.184 4.8135C17.3441 4.91224 16.7012 5.104 16.1928 5.34182C15.5524 5.64138 15.0904 6.0298 14.6986 6.45706C14.1821 7.28245 13.868 8.21416 13.7758 9.17678C15.1137 9.00407 16.0894 8.59497 16.7973 8.04007C17.502 7.32455 17.9988 6.41028 18.184 4.8135Z" fill="#31674C"/>
</svg>
