<svg width="24" height="24" viewBox="0 0 24 24" fill="none" xmlns="http://www.w3.org/2000/svg">
<path d="M12.1025 1.25366C12.3055 1.27021 12.5012 1.33657 12.6729 1.44604L12.7568 1.50366L12.835 1.56909C12.9864 1.70482 13.1023 1.87542 13.1729 2.06616L13.2051 2.16284L13.209 2.17749L14.79 8.31226L14.8418 8.47144C14.9044 8.62549 14.9978 8.76613 15.1162 8.88452C15.2741 9.04233 15.4714 9.15489 15.6875 9.21069L21.8223 10.7917L21.835 10.7947C22.0657 10.8583 22.2725 10.987 22.4316 11.1638L22.4971 11.2429L22.5557 11.3269C22.6837 11.5272 22.7529 11.7606 22.7529 11.9998C22.7529 12.2734 22.6628 12.5399 22.4971 12.7576C22.3313 12.9751 22.0986 13.1321 21.835 13.2048L21.8223 13.2087L15.6875 14.7888C15.4713 14.8446 15.2741 14.9581 15.1162 15.116C14.9584 15.2739 14.8458 15.4711 14.79 15.6873L13.208 21.822C13.2068 21.8268 13.2054 21.8319 13.2041 21.8367C13.1306 22.0992 12.973 22.331 12.7559 22.4958C12.5385 22.6607 12.2728 22.7507 12 22.7507C11.7272 22.7507 11.4615 22.6607 11.2441 22.4958C11.027 22.331 10.8694 22.0992 10.7959 21.8367C10.7946 21.8319 10.7932 21.8269 10.792 21.822L9.21094 15.6873C9.15514 15.4711 9.0426 15.2739 8.88477 15.116C8.72688 14.9581 8.52966 14.8446 8.31348 14.7888L2.17773 13.2068C2.17205 13.2053 2.16581 13.2045 2.16016 13.2029C1.89868 13.1286 1.6688 12.9705 1.50488 12.7537C1.34089 12.5366 1.25195 12.2718 1.25195 11.9998C1.25201 11.7279 1.34103 11.4637 1.50488 11.2468L1.56934 11.1677C1.72673 10.9913 1.93144 10.8626 2.16016 10.7976L2.17773 10.7927L8.31348 9.20972C8.52958 9.15394 8.72689 9.04131 8.88477 8.88354C9.04267 8.72574 9.15504 8.52838 9.21094 8.31226L10.793 2.17749C10.7942 2.1726 10.7955 2.16771 10.7969 2.16284C10.8704 1.90019 11.0278 1.66852 11.2451 1.50366L11.3291 1.44604C11.5293 1.31842 11.7622 1.24976 12.001 1.24976L12.1025 1.25366ZM10.6641 8.68726L10.6631 8.68823C10.5401 9.16342 10.2924 9.59706 9.94531 9.94409C9.59784 10.2913 9.16318 10.5392 8.6875 10.6619L3.50293 11.9988L8.6875 13.3367C9.16335 13.4594 9.59782 13.7079 9.94531 14.0554C10.2927 14.4028 10.5413 14.8366 10.6641 15.3123L12 20.4968L13.3369 15.3123C13.4597 14.8366 13.7083 14.4028 14.0557 14.0554C14.4032 13.7079 14.8376 13.4594 15.3135 13.3367L20.5 11.9998L15.3135 10.6628C14.8377 10.5401 14.4031 10.2925 14.0557 9.94507C13.7516 9.64104 13.5231 9.27062 13.3887 8.86401L13.3369 8.68726L12 3.50269L10.6641 8.68726Z" fill="#31674C"/>
<path d="M19.2504 7.00001V3.00001C19.2504 2.58579 19.5862 2.25001 20.0004 2.25001C20.4146 2.25001 20.7504 2.58579 20.7504 3.00001V7.00001C20.7504 7.41422 20.4146 7.75001 20.0004 7.75001C19.5862 7.75001 19.2504 7.41422 19.2504 7.00001Z" fill="#31674C"/>
<path d="M22.0004 4.25001C22.4146 4.25001 22.7504 4.58579 22.7504 5.00001C22.7504 5.41422 22.4146 5.75001 22.0004 5.75001H18.0004C17.5862 5.75001 17.2504 5.41422 17.2504 5.00001C17.2504 4.58579 17.5862 4.25001 18.0004 4.25001H22.0004Z" fill="#31674C"/>
<path d="M3.25043 19V17C3.25043 16.5858 3.58621 16.25 4.00043 16.25C4.41464 16.25 4.75043 16.5858 4.75043 17V19C4.75043 19.4142 4.41464 19.75 4.00043 19.75C3.58621 19.75 3.25043 19.4142 3.25043 19Z" fill="#31674C"/>
<path d="M5.00043 17.25C5.41464 17.25 5.75043 17.5858 5.75043 18C5.75043 18.4142 5.41464 18.75 5.00043 18.75H3.00043C2.58621 18.75 2.25043 18.4142 2.25043 18C2.25043 17.5858 2.58621 17.25 3.00043 17.25H5.00043Z" fill="#31674C"/>
</svg>
