<svg width="24" height="24" viewBox="0 0 24 24" fill="none" xmlns="http://www.w3.org/2000/svg">
<path d="M9.46989 15.4697C9.76278 15.1768 10.2375 15.1768 10.5304 15.4697L12.0304 16.9697C12.3233 17.2626 12.3233 17.7374 12.0304 18.0303C11.7375 18.3232 11.2628 18.3232 10.9699 18.0303L9.46989 16.5303C9.17699 16.2374 9.17699 15.7626 9.46989 15.4697Z" fill="#31674C"/>
<path d="M11.9699 5.96974C12.2628 5.67684 12.7375 5.67684 13.0304 5.96974L14.5304 7.46974C14.8233 7.76263 14.8233 8.23739 14.5304 8.53028C14.2375 8.82318 13.7628 8.82318 13.4699 8.53028L11.9699 7.03028C11.677 6.73739 11.677 6.26263 11.9699 5.96974Z" fill="#31674C"/>
<path d="M14.4422 1.49806C14.7192 1.1902 15.1939 1.16542 15.5018 1.44239C15.8097 1.71947 15.8345 2.19407 15.5574 2.50196C13.874 4.37277 13.2066 6.22537 12.9353 8.1006C12.8759 8.51042 12.4956 8.79465 12.0857 8.73536C11.6758 8.67605 11.3917 8.29565 11.451 7.88575C11.7577 5.76509 12.5299 3.62313 14.4422 1.49806Z" fill="#31674C"/>
<path d="M15.9699 9.96974C16.2628 9.67684 16.7375 9.67684 17.0304 9.96974L18.0304 10.9697C18.3233 11.2626 18.3233 11.7374 18.0304 12.0303C17.7375 12.3232 17.2628 12.3232 16.9699 12.0303L15.9699 11.0303C15.677 10.7374 15.677 10.2626 15.9699 9.96974Z" fill="#31674C"/>
<path d="M13.5789 2.57874C13.8718 2.28584 14.3465 2.28584 14.6394 2.57874L17.5301 5.46936C17.823 5.76226 17.823 6.23702 17.5301 6.52991C17.2372 6.8228 16.7624 6.8228 16.4695 6.52991L13.5789 3.63928C13.286 3.34639 13.286 2.87163 13.5789 2.57874Z" fill="#31674C"/>
<path d="M21.4982 8.44239C21.8061 8.16533 22.2807 8.19023 22.5578 8.49806C22.8348 8.80592 22.8099 9.28053 22.5021 9.55763C18.9376 12.7655 15.3345 12.75 12.0002 12.75C8.66804 12.75 5.60457 12.7656 2.50211 15.5576C2.19425 15.8347 1.71964 15.8098 1.44254 15.502C1.16548 15.1941 1.19038 14.7195 1.49821 14.4424C5.06273 11.2345 8.66581 11.25 12.0002 11.25C15.3323 11.25 18.3958 11.2344 21.4982 8.44239Z" fill="#31674C"/>
<path d="M19.4699 8.46974C19.7628 8.17684 20.2375 8.17684 20.5304 8.46974L21.4211 9.36036C21.714 9.65326 21.714 10.128 21.4211 10.4209C21.1282 10.7138 20.6534 10.7138 20.3605 10.4209L19.4699 9.53028C19.177 9.23739 19.177 8.76263 19.4699 8.46974Z" fill="#31674C"/>
<path d="M2.57889 13.5787C2.87178 13.2858 3.34654 13.2858 3.63943 13.5787L4.53006 14.4694C4.82295 14.7623 4.82295 15.237 4.53006 15.5299C4.23716 15.8228 3.7624 15.8228 3.46951 15.5299L2.57889 14.6393C2.28599 14.3464 2.28599 13.8716 2.57889 13.5787Z" fill="#31674C"/>
<path d="M5.96989 11.9697C6.26278 11.6768 6.73754 11.6768 7.03043 11.9697L8.03043 12.9697C8.32333 13.2626 8.32333 13.7374 8.03043 14.0303C7.73754 14.3232 7.26278 14.3232 6.96989 14.0303L5.96989 13.0303C5.67699 12.7374 5.67699 12.2626 5.96989 11.9697Z" fill="#31674C"/>
<path d="M6.46989 17.4697C6.76278 17.1768 7.23754 17.1768 7.53043 17.4697L10.4211 20.3604C10.714 20.6533 10.714 21.128 10.4211 21.4209C10.1282 21.7138 9.6534 21.7138 9.36051 21.4209L6.46989 18.5303C6.17699 18.2374 6.17699 17.7626 6.46989 17.4697Z" fill="#31674C"/>
<path d="M11.0646 15.8996C11.1239 15.4897 11.5044 15.2057 11.9142 15.2648C12.3242 15.3241 12.6083 15.7045 12.549 16.1144C12.2422 18.2351 11.4701 20.3771 9.55778 22.5021C9.28068 22.8099 8.80605 22.8348 8.49821 22.5578C8.19031 22.2807 8.16547 21.8061 8.44254 21.4982C10.1262 19.6273 10.7934 17.7749 11.0646 15.8996Z" fill="#31674C"/>
</svg>
