<svg width="24" height="24" viewBox="0 0 24 24" fill="none" xmlns="http://www.w3.org/2000/svg">
<path d="M21.25 9C21.25 8.66848 21.1182 8.35063 20.8838 8.11621C20.6494 7.88179 20.3315 7.75 20 7.75H17C16.7775 7.75 16.5663 7.65135 16.4238 7.48047L14.1484 4.75H9.85156L7.57617 7.48047C7.43368 7.65135 7.2225 7.75 7 7.75H4C3.66848 7.75 3.35063 7.88179 3.11621 8.11621C2.88179 8.35063 2.75 8.66848 2.75 9V18C2.75 18.3315 2.88179 18.6494 3.11621 18.8838C3.35063 19.1182 3.66848 19.25 4 19.25H20C20.3315 19.25 20.6494 19.1182 20.8838 18.8838C21.1182 18.6494 21.25 18.3315 21.25 18V9ZM22.75 18C22.75 18.7293 22.4601 19.4286 21.9443 19.9443C21.4286 20.4601 20.7293 20.75 20 20.75H4C3.27065 20.75 2.57139 20.4601 2.05566 19.9443C1.53994 19.4286 1.25 18.7293 1.25 18V9C1.25 8.27065 1.53994 7.57139 2.05566 7.05566C2.57139 6.53994 3.27065 6.25 4 6.25H6.64844L8.92383 3.51953L8.98047 3.45898C9.11936 3.32559 9.30531 3.25 9.5 3.25H14.5C14.7225 3.25 14.9337 3.34865 15.0762 3.51953L17.3516 6.25H20C20.7293 6.25 21.4286 6.53994 21.9443 7.05566C22.4601 7.57139 22.75 8.27065 22.75 9V18Z" fill="#31674C"/>
<path d="M14.25 13C14.25 11.7574 13.2426 10.75 12 10.75C10.7574 10.75 9.75 11.7574 9.75 13C9.75 14.2426 10.7574 15.25 12 15.25C13.2426 15.25 14.25 14.2426 14.25 13ZM15.75 13C15.75 15.0711 14.0711 16.75 12 16.75C9.92893 16.75 8.25 15.0711 8.25 13C8.25 10.9289 9.92893 9.25 12 9.25C14.0711 9.25 15.75 10.9289 15.75 13Z" fill="#31674C"/>
</svg>
