<svg width="40" height="40" viewBox="0 0 40 40" fill="none" xmlns="http://www.w3.org/2000/svg">
<path d="M21.8042 34.3747C22.1494 33.7769 22.9137 33.5722 23.5116 33.9173C24.1094 34.2625 24.3141 35.0268 23.9689 35.6247C23.5667 36.3212 22.989 36.9005 22.2925 37.3027C21.596 37.7048 20.8051 37.9162 20.0008 37.9163C19.1966 37.9163 18.4057 37.7047 17.7092 37.3027C17.0124 36.9005 16.4334 36.3214 16.0311 35.6247C15.6859 35.0268 15.8906 34.2625 16.4885 33.9173C17.0863 33.5721 17.8506 33.7768 18.1958 34.3747C18.3787 34.6914 18.6425 34.9536 18.9592 35.1364C19.2758 35.3192 19.6352 35.4163 20.0008 35.4163C20.3663 35.4162 20.726 35.3191 21.0425 35.1364C21.3588 34.9536 21.6215 34.691 21.8042 34.3747Z" fill="#AA9255"/>
<path d="M28.7497 13.333C28.7497 11.0126 27.8284 8.78737 26.1879 7.14648C24.5469 5.50554 22.3204 4.58301 19.9997 4.58301C17.6792 4.58312 15.454 5.50564 13.8132 7.14648C12.1724 8.78741 11.2497 11.0125 11.2497 13.333C11.2497 17.2129 10.6407 19.8875 9.67745 21.9268C8.72316 23.9469 7.45884 25.2508 6.36039 26.3848L6.29366 26.484C6.27603 26.5203 6.2628 26.5594 6.25623 26.5996C6.24336 26.679 6.25474 26.7603 6.28715 26.834C6.31966 26.9077 6.37271 26.9705 6.44015 27.0146C6.50778 27.0588 6.58726 27.0829 6.66801 27.083H33.3347C33.4149 27.0829 33.4936 27.0599 33.5609 27.0163C33.6285 26.9723 33.6828 26.9093 33.7155 26.8356C33.7482 26.7618 33.7578 26.6793 33.7448 26.5996C33.7319 26.5201 33.6965 26.4461 33.6423 26.3864C32.5416 25.2518 31.276 23.9476 30.322 21.9284C29.3584 19.8888 28.7497 17.213 28.7497 13.333ZM31.2497 13.333C31.2497 16.9514 31.8172 19.2403 32.5827 20.8607C33.3495 22.4833 34.3546 23.531 35.4636 24.6742C35.4728 24.6837 35.4823 24.6936 35.4913 24.7034C35.8717 25.1215 36.1217 25.6413 36.2123 26.1992C36.3028 26.7572 36.2293 27.3294 36.0007 27.8464C35.772 28.3631 35.3985 28.8027 34.9248 29.111C34.5105 29.3806 34.0354 29.5393 33.5446 29.5749L33.333 29.583H6.66638C6.10127 29.5826 5.54791 29.4181 5.07459 29.1094C4.60115 28.8004 4.22679 28.3604 3.99874 27.8431C3.77076 27.326 3.69924 26.7537 3.79041 26.196C3.8817 25.6381 4.13204 25.1178 4.51306 24.7002L4.53911 24.6725C5.64603 23.5297 6.65165 22.482 7.41834 20.859C8.18355 19.2388 8.74972 16.9506 8.74972 13.333C8.74972 10.3493 9.93583 7.48706 12.0456 5.37728C14.1552 3.26797 17.0165 2.08312 19.9997 2.08301C22.9833 2.08301 25.8457 3.26762 27.9554 5.37728C30.0652 7.48706 31.2497 10.3493 31.2497 13.333Z" fill="#AA9255"/>
</svg>
