<svg width="20" height="20" viewBox="0 0 20 20" fill="none" xmlns="http://www.w3.org/2000/svg">
<path d="M16.0413 4.99935C16.0412 4.94423 16.0193 4.89103 15.9803 4.85205C15.9413 4.8131 15.8882 4.79102 15.833 4.79102C13.9665 4.79102 11.754 3.70749 10.2267 2.37402C10.1634 2.31999 10.0829 2.29102 9.99967 2.29102C9.91641 2.29102 9.83597 2.32081 9.77262 2.37484C8.2543 3.69934 6.03323 4.79102 4.16634 4.79102C4.11118 4.79102 4.0581 4.8131 4.01904 4.85205C3.98006 4.89103 3.95811 4.94423 3.95801 4.99935V10.8327C3.95801 12.7508 4.62195 14.1575 5.67269 15.2337C6.60709 16.1907 7.86928 16.9077 9.30387 17.4635L9.92887 17.6922L9.94271 17.6971C9.98696 17.7136 10.0354 17.7142 10.0802 17.6995C11.7676 17.1111 13.2609 16.3296 14.3275 15.2354C15.3776 14.1579 16.0413 12.7508 16.0413 10.8327V4.99935ZM17.2913 10.8327C17.2913 13.0811 16.4966 14.7998 15.2218 16.1077C13.9641 17.3981 12.2667 18.2615 10.4888 18.8812L10.4839 18.8836C10.1708 18.9897 9.83101 18.9853 9.52034 18.873C7.73783 18.2574 6.0374 17.3965 4.77832 16.1069C3.50223 14.7999 2.70801 13.0809 2.70801 10.8327V4.99935C2.70811 4.61271 2.86185 4.24166 3.13525 3.96826C3.40873 3.69489 3.77965 3.54102 4.16634 3.54102C5.63064 3.54102 7.57321 2.63594 8.95475 1.4292L8.96045 1.42432C9.25014 1.17688 9.61869 1.04102 9.99967 1.04102C10.3331 1.04102 10.6568 1.14539 10.9266 1.33724L11.0389 1.42432L11.0446 1.4292C12.4339 2.64377 14.3682 3.54102 15.833 3.54102C16.2197 3.54102 16.5906 3.69489 16.8641 3.96826C17.1375 4.24166 17.2912 4.61271 17.2913 4.99935V10.8327Z" fill="#737373"/>
<path d="M12.0578 7.89116C12.3019 7.64708 12.6975 7.64708 12.9416 7.89116C13.1856 8.13524 13.1856 8.53087 12.9416 8.77495L9.60824 12.1083C9.36416 12.3524 8.96852 12.3524 8.72445 12.1083L7.05778 10.4416C6.8137 10.1975 6.8137 9.80191 7.05778 9.55783C7.30186 9.31375 7.69749 9.31375 7.94157 9.55783L9.16634 10.7826L12.0578 7.89116Z" fill="#737373"/>
</svg>
