<svg width="20" height="20" viewBox="0 0 20 20" fill="none" xmlns="http://www.w3.org/2000/svg">
<path d="M10.0851 1.04427C10.2542 1.05806 10.4173 1.11336 10.5604 1.20459L10.6304 1.2526L10.6955 1.30713C10.8217 1.42023 10.9182 1.5624 10.9771 1.72135L11.0039 1.80192L11.0072 1.81413L12.3247 6.92643L12.3678 7.05908C12.42 7.18746 12.4979 7.30466 12.5965 7.40332C12.7281 7.53482 12.8925 7.62862 13.0726 7.67513L18.1849 8.99268L18.1955 8.99512C18.3877 9.04815 18.5601 9.15536 18.6927 9.30273L18.7472 9.36865L18.7961 9.43864C18.9028 9.60559 18.9604 9.80004 18.9604 9.99935C18.9604 10.2273 18.8854 10.4495 18.7472 10.6309C18.6091 10.8122 18.4152 10.943 18.1955 11.0036L18.1849 11.0068L13.0726 12.3236C12.8924 12.3701 12.7281 12.4646 12.5965 12.5962C12.465 12.7278 12.3712 12.8921 12.3247 13.0723L11.0063 18.1846C11.0053 18.1886 11.0042 18.1928 11.0031 18.1968C10.9419 18.4155 10.8105 18.6087 10.6296 18.7461C10.4485 18.8835 10.227 18.9585 9.99967 18.9585C9.77234 18.9585 9.55091 18.8835 9.36979 18.7461C9.18883 18.6087 9.05749 18.4156 8.99626 18.1968C8.99514 18.1928 8.99404 18.1886 8.993 18.1846L7.67546 13.0723C7.62896 12.8921 7.53517 12.7278 7.40365 12.5962C7.27208 12.4646 7.10773 12.3701 6.92757 12.3236L1.81445 11.0052C1.80971 11.004 1.80451 11.0033 1.7998 11.002C1.58191 10.94 1.39034 10.8083 1.25374 10.6276C1.11708 10.4468 1.04297 10.226 1.04297 9.99935C1.04301 9.77281 1.1172 9.55267 1.25374 9.37191L1.30745 9.30599C1.43862 9.15901 1.60921 9.05174 1.7998 8.99756L1.81445 8.99349L6.92757 7.67432C7.10766 7.62784 7.27208 7.53398 7.40365 7.40251C7.53523 7.271 7.62887 7.10654 7.67546 6.92643L8.99381 1.81413C8.99487 1.81005 8.99594 1.80597 8.99707 1.80192C9.05832 1.58305 9.18954 1.38999 9.37061 1.2526L9.44059 1.20459C9.6074 1.09824 9.8015 1.04102 10.0005 1.04102L10.0851 1.04427ZM8.88639 7.23893L8.88558 7.23975C8.7831 7.63574 8.57671 7.9971 8.28743 8.2863C7.99787 8.57566 7.63566 8.78224 7.23926 8.88444L2.91878 9.99853L7.23926 11.1134C7.6358 11.2157 7.99786 11.4228 8.28743 11.7124C8.57689 12.0019 8.78409 12.3634 8.88639 12.7598L9.99967 17.0802L11.1138 12.7598C11.2161 12.3634 11.4233 12.0019 11.7127 11.7124C12.0023 11.4228 12.3644 11.2157 12.7609 11.1134L17.083 9.99935L12.7609 8.88525C12.3644 8.78297 12.0023 8.57662 11.7127 8.28711C11.4594 8.03375 11.269 7.72507 11.1569 7.38623L11.1138 7.23893L9.99967 2.91846L8.88639 7.23893Z" fill="#737373"/>
<path d="M16.0417 5.83289V2.49956C16.0417 2.15438 16.3215 1.87456 16.6667 1.87456C17.0119 1.87456 17.2917 2.15438 17.2917 2.49956V5.83289C17.2917 6.17807 17.0119 6.45789 16.6667 6.45789C16.3215 6.45789 16.0417 6.17807 16.0417 5.83289Z" fill="#737373"/>
<path d="M18.3334 3.54122C18.6785 3.54122 18.9584 3.82105 18.9584 4.16622C18.9584 4.5114 18.6785 4.79122 18.3334 4.79122H15C14.6549 4.79122 14.375 4.5114 14.375 4.16622C14.375 3.82105 14.6549 3.54122 15 3.54122H18.3334Z" fill="#737373"/>
<path d="M2.70836 15.8329V14.1662C2.70836 13.821 2.98819 13.5412 3.33336 13.5412C3.67854 13.5412 3.95836 13.821 3.95836 14.1662V15.8329C3.95836 16.1781 3.67854 16.4579 3.33336 16.4579C2.98819 16.4579 2.70836 16.1781 2.70836 15.8329Z" fill="#737373"/>
<path d="M4.1667 14.3746C4.51188 14.3746 4.7917 14.6544 4.7917 14.9996C4.7917 15.3447 4.51188 15.6246 4.1667 15.6246H2.50003C2.15485 15.6246 1.87503 15.3447 1.87503 14.9996C1.87503 14.6544 2.15485 14.3746 2.50003 14.3746H4.1667Z" fill="#737373"/>
</svg>
