<svg width="20" height="20" viewBox="0 0 20 20" fill="none" xmlns="http://www.w3.org/2000/svg">
<path d="M3.7251 6.22412C3.96918 5.98004 4.36481 5.98004 4.60889 6.22412L9.60889 11.2241C9.85296 11.4682 9.85296 11.8638 9.60889 12.1079C9.36481 12.352 8.96918 12.352 8.7251 12.1079L3.7251 7.10791C3.48102 6.86383 3.48102 6.4682 3.7251 6.22412Z" fill="#737373"/>
<path d="M9.48031 3.81934C9.67178 3.53213 10.0598 3.45453 10.347 3.646C10.6342 3.83747 10.7118 4.22549 10.5203 4.5127L8.85368 7.0127C8.83085 7.04694 8.80466 7.07881 8.77555 7.10791L3.77555 12.1079C3.53148 12.352 3.13584 12.352 2.89176 12.1079C2.64769 11.8638 2.64769 11.4682 2.89176 11.2241L7.84782 6.26807L9.48031 3.81934Z" fill="#737373"/>
<path d="M11.667 3.54102C12.0122 3.54102 12.292 3.82084 12.292 4.16602C12.292 4.51119 12.0122 4.79102 11.667 4.79102H1.66699C1.32181 4.79102 1.04199 4.51119 1.04199 4.16602C1.04199 3.82084 1.32181 3.54102 1.66699 3.54102H11.667Z" fill="#737373"/>
<path d="M6.66699 1.04102C7.01217 1.04102 7.29199 1.32084 7.29199 1.66602C7.29199 2.01119 7.01217 2.29102 6.66699 2.29102H5.83366C5.48848 2.29102 5.20866 2.01119 5.20866 1.66602C5.20866 1.32084 5.48848 1.04102 5.83366 1.04102H6.66699Z" fill="#737373"/>
<path d="M14.167 9.37435C14.4037 9.37435 14.6202 9.50847 14.7261 9.72021L18.8927 18.0535C19.0469 18.3622 18.9214 18.7374 18.6128 18.8918C18.3041 19.0459 17.9289 18.9204 17.7746 18.6118L14.167 11.3966L10.5594 18.6118C10.4051 18.9204 10.0299 19.0459 9.72119 18.8918C9.41256 18.7374 9.28713 18.3622 9.44124 18.0535L13.6079 9.72021C13.7138 9.50847 13.9303 9.37435 14.167 9.37435Z" fill="#737373"/>
<path d="M16.667 14.3743C17.0122 14.3743 17.292 14.6542 17.292 14.9993C17.292 15.3445 17.0122 15.6243 16.667 15.6243H11.667C11.3218 15.6243 11.042 15.3445 11.042 14.9993C11.042 14.6542 11.3218 14.3743 11.667 14.3743H16.667Z" fill="#737373"/>
</svg>
