<svg width="20" height="20" viewBox="0 0 20 20" fill="none" xmlns="http://www.w3.org/2000/svg">
<path d="M10.9024 17.1868C11.075 16.8879 11.4571 16.7856 11.756 16.9582C12.055 17.1308 12.1573 17.5129 11.9847 17.8118C11.7836 18.1601 11.4948 18.4498 11.1465 18.6509C10.7982 18.8519 10.4028 18.9576 10.0007 18.9577C9.59856 18.9577 9.20313 18.8519 8.85484 18.6509C8.50648 18.4498 8.21696 18.1602 8.01581 17.8118C7.84321 17.5129 7.94558 17.1308 8.24449 16.9582C8.54341 16.7856 8.92556 16.8879 9.09817 17.1868C9.1896 17.3452 9.3215 17.4763 9.47984 17.5677C9.63817 17.6591 9.81787 17.7077 10.0007 17.7077C10.1834 17.7076 10.3633 17.6591 10.5215 17.5677C10.6797 17.4763 10.811 17.345 10.9024 17.1868Z" fill="#737373"/>
<path d="M17.7087 6.66602C17.7087 4.90298 17.0977 3.35962 16.1567 2.02653C15.9577 1.74461 16.0247 1.35487 16.3065 1.15576C16.5884 0.956756 16.9781 1.02369 17.1772 1.3055C18.2362 2.80569 18.9587 4.59581 18.9587 6.66602C18.9587 7.01119 18.6788 7.29102 18.3337 7.29102C17.9885 7.29102 17.7087 7.01119 17.7087 6.66602Z" fill="#737373"/>
<path d="M14.3751 6.66602C14.3751 5.50584 13.9145 4.3932 13.0942 3.57275C12.2737 2.75228 11.1604 2.29102 10.0001 2.29102C8.83987 2.29107 7.72728 2.75233 6.90686 3.57275C6.08645 4.39322 5.62512 5.50574 5.62512 6.66602C5.62512 8.60594 5.3206 9.94327 4.83899 10.9629C4.36184 11.973 3.72968 12.6249 3.18046 13.1919L3.14709 13.2415C3.13828 13.2596 3.13166 13.2792 3.12838 13.2993C3.12194 13.339 3.12763 13.3797 3.14384 13.4165C3.16009 13.4534 3.18661 13.4848 3.22034 13.5068C3.25415 13.5289 3.29389 13.541 3.33427 13.541H16.6676C16.7077 13.541 16.7471 13.5295 16.7807 13.5076C16.8145 13.4857 16.8417 13.4541 16.858 13.4173C16.8744 13.3804 16.8791 13.3392 16.8727 13.2993C16.8662 13.2595 16.8485 13.2225 16.8214 13.1927C16.271 12.6254 15.6383 11.9733 15.1613 10.9637C14.6794 9.94389 14.3751 8.606 14.3751 6.66602ZM15.6251 6.66602C15.6251 8.4752 15.9088 9.61966 16.2916 10.4299C16.675 11.2412 17.1776 11.765 17.7321 12.3366C17.7367 12.3414 17.7414 12.3463 17.7459 12.3512C17.9361 12.5603 18.0611 12.8201 18.1064 13.0991C18.1517 13.3781 18.1149 13.6642 18.0006 13.9227C17.8863 14.1811 17.6995 14.4009 17.4627 14.555C17.2555 14.6898 17.018 14.7692 16.7726 14.7869L16.6668 14.791H3.33345C3.0509 14.7908 2.77422 14.7086 2.53756 14.5542C2.30084 14.3997 2.11366 14.1797 1.99963 13.9211C1.88564 13.6625 1.84988 13.3764 1.89547 13.0975C1.94111 12.8185 2.06628 12.5584 2.25679 12.3496L2.26981 12.3358C2.82328 11.7644 3.32609 11.2405 3.70943 10.429C4.09204 9.61891 4.37512 8.47481 4.37512 6.66602C4.37512 5.17417 4.96818 3.74304 6.02307 2.68815C7.07788 1.6335 8.50849 1.04107 10.0001 1.04102C11.4919 1.04102 12.9231 1.63332 13.978 2.68815C15.0329 3.74304 15.6251 5.17417 15.6251 6.66602Z" fill="#737373"/>
<path d="M1.04199 6.66602C1.04199 4.59581 1.76445 2.80569 2.8234 1.3055C3.02251 1.02369 3.41225 0.956756 3.69417 1.15576C3.97598 1.35487 4.04292 1.74461 3.84391 2.02653C2.90296 3.35962 2.29199 4.90298 2.29199 6.66602C2.29199 7.01119 2.01217 7.29102 1.66699 7.29102C1.32181 7.29102 1.04199 7.01119 1.04199 6.66602Z" fill="#737373"/>
</svg>
