<svg width="20" height="20" viewBox="0 0 20 20" fill="none" xmlns="http://www.w3.org/2000/svg">
<path d="M7.70866 14.1665C7.70869 13.7798 7.86245 13.4089 8.13591 13.1354C8.40939 12.862 8.78025 12.7082 9.16699 12.7082H9.31022L9.41276 12.7033C9.65134 12.6796 9.87573 12.574 10.0467 12.403L10.7254 11.7251L10.7922 11.6665C10.9569 11.543 11.1743 11.5072 11.3724 11.5762C12.397 11.9331 13.5128 11.9323 14.5365 11.5729C15.5601 11.2135 16.4314 10.5168 17.008 9.59781C17.5845 8.67885 17.8321 7.59145 17.7103 6.5135C17.5885 5.43558 17.1044 4.43069 16.3374 3.66356C15.5702 2.89639 14.5647 2.41172 13.4867 2.28986C12.4087 2.16812 11.3213 2.4157 10.4023 2.99218C9.48329 3.56876 8.78747 4.44082 8.42806 5.46451C8.06875 6.48812 8.06712 7.60328 8.42399 8.62775C8.50282 8.85415 8.44539 9.10603 8.27588 9.27554L2.59717 14.9534C2.40184 15.1487 2.29209 15.4137 2.29199 15.6899V17.4998C2.29199 17.555 2.314 17.6081 2.35303 17.6471C2.3921 17.6862 2.44507 17.7082 2.50033 17.7082H5.00033C5.05558 17.7082 5.10855 17.6862 5.14762 17.6471C5.18665 17.6081 5.20866 17.555 5.20866 17.4998V16.6665C5.20869 16.2798 5.36245 15.9089 5.63591 15.6354C5.90939 15.362 6.28025 15.2082 6.66699 15.2082H7.50033C7.55558 15.2082 7.60855 15.1862 7.64762 15.1471C7.68665 15.1081 7.70866 15.055 7.70866 14.9998V14.1665ZM8.95866 14.9998C8.95866 15.3866 8.80486 15.7574 8.53141 16.0309C8.25792 16.3044 7.8871 16.4582 7.50033 16.4582H6.66699C6.61177 16.4582 6.55876 16.4802 6.51969 16.5192C6.48066 16.5582 6.45869 16.6113 6.45866 16.6665V17.4998C6.45866 17.8866 6.30486 18.2574 6.03141 18.5309C5.75792 18.8044 5.3871 18.9582 5.00033 18.9582H2.50033C2.11355 18.9582 1.74273 18.8044 1.46924 18.5309C1.19579 18.2574 1.04199 17.8866 1.04199 17.4998V15.6899C1.04212 15.0822 1.28361 14.4993 1.71338 14.0696L7.12516 8.65705C6.79878 7.47332 6.83926 6.21483 7.24805 5.05028C7.70121 3.75955 8.57948 2.66041 9.73828 1.93342C10.897 1.20652 12.2682 0.894372 13.6274 1.048C14.9867 1.20164 16.2539 1.81171 17.2212 2.77896C18.1885 3.74622 18.7985 5.01346 18.9521 6.37271C19.1058 7.73193 18.7936 9.10312 18.0667 10.2619C17.3397 11.4207 16.2406 12.2989 14.9499 12.7521C13.7852 13.1609 12.5269 13.2007 11.3431 12.8742L10.9305 13.2868C10.5008 13.7165 9.91794 13.958 9.31022 13.9582H9.16699C9.11177 13.9582 9.05876 13.9802 9.01969 14.0192C8.98066 14.0582 8.95869 14.1113 8.95866 14.1665V14.9998Z" fill="#737373"/>
<path d="M13.7503 6.66663C13.9804 6.66663 14.167 6.48008 14.167 6.24996C14.167 6.01984 13.9804 5.83329 13.7503 5.83329C13.5202 5.83329 13.3337 6.01984 13.3337 6.24996C13.3337 6.48008 13.5202 6.66663 13.7503 6.66663Z" fill="#737373"/>
<path d="M13.7503 6.04163C13.6353 6.04163 13.542 6.1349 13.542 6.24996C13.542 6.36502 13.6353 6.45829 13.7503 6.45829C13.8654 6.45829 13.9587 6.36502 13.9587 6.24996C13.9587 6.1349 13.8654 6.04163 13.7503 6.04163ZM14.792 6.24996C14.792 6.82526 14.3256 7.29163 13.7503 7.29163C13.175 7.29163 12.7087 6.82526 12.7087 6.24996C12.7087 5.67466 13.175 5.20829 13.7503 5.20829C14.3256 5.20829 14.792 5.67466 14.792 6.24996Z" fill="#737373"/>
</svg>
