<svg width="20" height="20" viewBox="0 0 20 20" fill="none" xmlns="http://www.w3.org/2000/svg">
<path d="M8.86984 3.60893C10.9465 3.36145 13.0475 3.80051 14.8513 4.85893C16.5422 5.85127 17.8853 7.33677 18.703 9.11186L18.8593 9.47074L18.8674 9.49109C18.9889 9.81845 18.9889 10.1785 18.8674 10.5059C18.8648 10.5129 18.8621 10.5202 18.8593 10.5271C18.5317 11.3212 18.0984 12.0675 17.5718 12.7463C17.3602 13.019 16.9673 13.0686 16.6945 12.857C16.4223 12.6454 16.3726 12.2531 16.5839 11.9805C17.0386 11.3944 17.413 10.75 17.6971 10.0648C17.7117 10.0217 17.7117 9.97529 17.6971 9.93217C17.0033 8.25734 15.782 6.85404 14.2181 5.9364C12.6499 5.01623 10.8235 4.63483 9.01795 4.84998C8.67519 4.89082 8.36381 4.64585 8.32296 4.3031C8.28224 3.96047 8.52721 3.64983 8.86984 3.60893Z" fill="#737373"/>
<path d="M7.75189 7.82807C7.99171 7.58 8.38747 7.57369 8.63568 7.81342C8.88375 8.05324 8.89087 8.449 8.65114 8.69721C8.30969 9.05079 8.12038 9.52404 8.12461 10.0156C8.12888 10.5072 8.32633 10.9773 8.67393 11.325C9.02157 11.6726 9.49172 11.87 9.98334 11.8743C10.4749 11.8786 10.9489 11.6893 11.3025 11.3478C11.5508 11.1083 11.9466 11.115 12.1863 11.3632C12.426 11.6114 12.4189 12.0072 12.1708 12.247C11.5815 12.8162 10.792 13.1313 9.97276 13.1243C9.15339 13.1172 8.36954 12.7882 7.79014 12.2088C7.21087 11.6295 6.88183 10.8462 6.87461 10.027C6.86749 9.20759 7.18265 8.41745 7.75189 7.82807Z" fill="#737373"/>
<path d="M5.10347 4.88636C5.4002 4.71001 5.78405 4.80773 5.9604 5.10446C6.13654 5.40114 6.03893 5.78427 5.7423 5.96058C4.19751 6.87869 2.99083 8.27154 2.30236 9.93112C2.28741 9.97432 2.28723 10.0212 2.30155 10.0646C2.7572 11.1641 3.44322 12.1535 4.31327 12.9658C5.18686 13.7813 6.22584 14.3994 7.35933 14.7781C8.49286 15.1568 9.69471 15.2873 10.8831 15.1606C12.0715 15.0339 13.2191 14.6532 14.2474 14.0441C14.5443 13.8684 14.9276 13.9662 15.1035 14.263C15.2794 14.56 15.1807 14.944 14.8837 15.1199C13.7014 15.8202 12.3822 16.2576 11.0157 16.4033C9.64904 16.5489 8.26662 16.3994 6.96301 15.9638C5.65939 15.5283 4.46508 14.8168 3.4604 13.8789C2.45575 12.9409 1.66422 11.7983 1.14025 10.5276C1.13742 10.5208 1.1347 10.5134 1.13212 10.5065C1.01068 10.1791 1.01061 9.81899 1.13212 9.49167L1.14025 9.47132C1.93062 7.55462 3.32126 5.94565 5.10347 4.88636Z" fill="#737373"/>
<path d="M1.2245 1.22407C1.46857 0.979996 1.86421 0.979996 2.10829 1.22407L18.775 17.8907C19.019 18.1348 19.019 18.5305 18.775 18.7745C18.5309 19.0186 18.1352 19.0186 17.8912 18.7745L1.2245 2.10786C0.980419 1.86379 0.980419 1.46815 1.2245 1.22407Z" fill="#737373"/>
</svg>
