<svg width="20" height="20" viewBox="0 0 20 20" fill="none" xmlns="http://www.w3.org/2000/svg">
<path d="M14.1665 16.0419C14.5117 16.0419 14.7915 16.3218 14.7915 16.6669C14.7915 17.0121 14.5117 17.2919 14.1665 17.2919H5.83317C5.48799 17.2919 5.20817 17.0121 5.20817 16.6669C5.20817 16.3218 5.48799 16.0419 5.83317 16.0419H14.1665Z" fill="#737373"/>
<path d="M10.3001 8.00808C10.4801 7.7136 10.8642 7.6207 11.1587 7.80056C11.4532 7.98052 11.5461 8.36461 11.3662 8.65912C10.9938 9.26858 10.9044 9.89778 10.9381 10.5773C10.9553 10.9218 11.0033 11.2725 11.0618 11.6409C11.1188 11.9987 11.1891 12.3912 11.2352 12.768C11.328 13.5268 11.3477 14.3682 10.9642 15.176C10.575 15.9957 9.82252 16.6764 8.59196 17.2358C8.27778 17.3786 7.90722 17.2398 7.76432 16.9257C7.62151 16.6115 7.76027 16.241 8.07438 16.0981C9.13522 15.6159 9.61182 15.109 9.83463 14.6398C10.0631 14.1586 10.0784 13.6091 9.99414 12.9202C9.9517 12.5732 9.89001 12.2269 9.82812 11.8378C9.76791 11.4593 9.71039 11.0536 9.68978 10.6391C9.64809 9.80048 9.75606 8.89846 10.3001 8.00808Z" fill="#737373"/>
<path d="M3.22331 6.5517C5.68192 6.11266 7.19891 6.53867 8.28434 7.32807C9.36596 8.11477 10.0004 9.44165 10.4263 10.7192C10.4829 10.8892 10.4633 11.0752 10.3734 11.2303C10.2834 11.3853 10.1316 11.4945 9.95589 11.5297C8.25354 11.8702 6.82862 11.9047 5.55403 11.2254C5.55058 11.2236 5.5469 11.2222 5.54345 11.2205C5.54132 11.2193 5.53908 11.2184 5.53694 11.2172C4.34548 10.6143 3.34819 9.36376 2.73502 7.34923C2.68301 7.17831 2.70685 6.99298 2.80013 6.8406C2.89341 6.68824 3.04744 6.58311 3.22331 6.5517ZM7.54866 8.33881C6.88783 7.8583 5.91316 7.48493 4.1722 7.67638C4.66978 8.93538 5.31903 9.65335 5.96256 10.0266L6.1123 10.108L6.12939 10.117C6.87777 10.5199 7.75538 10.6056 8.98502 10.4287C8.61483 9.5191 8.15409 8.77913 7.54866 8.33881Z" fill="#737373"/>
<path d="M15.8097 2.70941C15.9841 2.70296 16.1539 2.76955 16.2769 2.89333C16.3996 3.01702 16.465 3.18637 16.4575 3.36046C16.3692 5.39298 15.8277 6.63911 14.8584 7.6085C14.8422 7.62476 14.8251 7.64052 14.8071 7.65489C13.845 8.4246 12.5407 8.86964 10.8659 8.95779C10.6982 8.96658 10.5338 8.90778 10.4102 8.79421C10.2865 8.68063 10.2138 8.52178 10.2083 8.35395C10.166 7.04952 10.5198 5.76269 11.2232 4.66335C11.2415 4.63464 11.2622 4.60731 11.285 4.58197C11.7012 4.11951 12.2247 3.66556 12.9639 3.31977C13.6998 2.97554 14.6187 2.75356 15.8097 2.70941ZM15.153 4.0115C14.4531 4.09378 13.9174 4.25358 13.4937 4.45176C12.96 4.70139 12.575 5.02508 12.2485 5.38113C11.8181 6.06895 11.5564 6.84537 11.4795 7.64756C12.5945 7.50363 13.4075 7.16272 13.9974 6.7003C14.5847 6.10404 14.9987 5.34214 15.153 4.0115Z" fill="#737373"/>
</svg>
