<svg width="20" height="20" viewBox="0 0 20 20" fill="none" xmlns="http://www.w3.org/2000/svg">
<path d="M11.0419 3.33268C11.0419 3.05642 10.9321 2.79154 10.7367 2.59619C10.5414 2.40084 10.2765 2.29102 10.0002 2.29102C9.72396 2.29102 9.45909 2.40084 9.26374 2.59619C9.06839 2.79154 8.95856 3.05642 8.95856 3.33268V12.116C8.95855 12.3393 8.83941 12.5456 8.64606 12.6572C8.12974 12.9553 7.72594 13.4158 7.49779 13.9666C7.26976 14.5174 7.22958 15.1283 7.38385 15.7041C7.53817 16.2798 7.87865 16.7882 8.35147 17.151C8.82446 17.514 9.40403 17.7109 10.0002 17.7109C10.5964 17.7109 11.176 17.514 11.649 17.151C12.1218 16.7882 12.4623 16.2798 12.6166 15.7041C12.7709 15.1283 12.7307 14.5174 12.5027 13.9666C12.2745 13.4158 11.8707 12.9553 11.3544 12.6572C11.161 12.5456 11.0419 12.3393 11.0419 12.116V3.33268ZM12.2919 11.7759C12.8969 12.2055 13.3716 12.798 13.6575 13.4881C13.9908 14.2931 14.049 15.1856 13.8235 16.0272C13.5979 16.8688 13.1012 17.6126 12.4099 18.1431C11.7186 18.6735 10.8716 18.9609 10.0002 18.9609C9.12886 18.9609 8.28186 18.6735 7.59056 18.1431C6.89927 17.6126 6.40251 16.8688 6.17699 16.0272C5.95148 15.1856 6.00962 14.2931 6.343 13.4881C6.62886 12.798 7.10359 12.2055 7.70856 11.7759V3.33268C7.70856 2.72489 7.95018 2.14217 8.37995 1.7124C8.80972 1.28263 9.39244 1.04102 10.0002 1.04102C10.608 1.04102 11.1907 1.28263 11.6205 1.7124C12.0503 2.14217 12.2919 2.72489 12.2919 3.33268V11.7759Z" fill="#737373"/>
</svg>
