<svg width="24" height="24" viewBox="0 0 24 24" fill="none" xmlns="http://www.w3.org/2000/svg">
<path d="M13.0823 20.625C13.2894 20.2663 13.7481 20.1435 14.1067 20.3506C14.4655 20.5577 14.5883 21.0163 14.3812 21.375C14.1398 21.7929 13.7932 22.1405 13.3753 22.3818C12.9574 22.6231 12.4829 22.7499 12.0003 22.75C11.5178 22.75 11.0432 22.623 10.6253 22.3818C10.2073 22.1405 9.85984 21.793 9.61847 21.375C9.41134 21.0163 9.53418 20.5577 9.89288 20.3506C10.2516 20.1435 10.7102 20.2663 10.9173 20.625C11.027 20.815 11.1853 20.9723 11.3753 21.082C11.5653 21.1917 11.7809 21.25 12.0003 21.25C12.2196 21.2499 12.4354 21.1917 12.6253 21.082C12.8151 20.9724 12.9727 20.8148 13.0823 20.625Z" fill="#737373"/>
<path d="M17.2496 8C17.2496 6.60779 16.6969 5.27262 15.7125 4.28809C14.728 3.30352 13.392 2.75 11.9996 2.75C10.6073 2.75007 9.27223 3.30358 8.28772 4.28809C7.30323 5.27264 6.74963 6.60767 6.74963 8C6.74963 10.3279 6.38421 11.9327 5.80628 13.1562C5.2337 14.3683 4.47511 15.1507 3.81604 15.8311L3.776 15.8906C3.76542 15.9124 3.75748 15.9359 3.75354 15.96C3.74582 16.0076 3.75265 16.0564 3.7721 16.1006C3.7916 16.1448 3.82343 16.1825 3.86389 16.209C3.90447 16.2355 3.95216 16.25 4.00061 16.25H20.0006C20.0487 16.2499 20.096 16.2361 20.1364 16.21C20.1769 16.1836 20.2095 16.1458 20.2291 16.1016C20.2487 16.0573 20.2545 16.0078 20.2467 15.96C20.239 15.9122 20.2177 15.8678 20.1852 15.832C19.5247 15.1513 18.7654 14.3687 18.193 13.1572C17.6148 11.9335 17.2496 10.328 17.2496 8ZM18.7496 8C18.7496 10.171 19.0901 11.5444 19.5494 12.5166C20.0095 13.4902 20.6126 14.1188 21.278 14.8047C21.2835 14.8104 21.2892 14.8164 21.2946 14.8223C21.5228 15.0731 21.6728 15.385 21.7272 15.7197C21.7815 16.0545 21.7374 16.3979 21.6002 16.708C21.463 17.0181 21.2389 17.2818 20.9547 17.4668C20.7061 17.6286 20.421 17.7238 20.1266 17.7451L19.9996 17.75H3.99963C3.66057 17.7498 3.32855 17.6511 3.04456 17.4658C2.7605 17.2805 2.53588 17.0164 2.39905 16.7061C2.26226 16.3958 2.21935 16.0524 2.27405 15.7178C2.32882 15.383 2.47903 15.0709 2.70764 14.8203L2.72327 14.8037C3.38742 14.118 3.9908 13.4894 4.45081 12.5156C4.90993 11.5435 5.24963 10.1706 5.24963 8C5.24963 6.20979 5.9613 4.49243 7.22717 3.22656C8.49295 1.96098 10.2097 1.25007 11.9996 1.25C13.7898 1.25 15.5072 1.96077 16.7731 3.22656C18.0389 4.49243 18.7496 6.20979 18.7496 8Z" fill="#737373"/>
</svg>
