<svg width="20" height="20" viewBox="0 0 20 20" fill="none" xmlns="http://www.w3.org/2000/svg">
<path d="M17.7061 15.833C17.706 15.6502 17.6583 15.4705 17.5669 15.3122L17.5653 15.3097L10.8986 3.64307L10.8978 3.64144C10.807 3.4812 10.6752 3.34765 10.5161 3.25488C10.3569 3.16211 10.1755 3.11328 9.99122 3.11328C9.80707 3.11331 9.62625 3.1622 9.46713 3.25488C9.30795 3.34764 9.1763 3.48116 9.08545 3.64144L9.08383 3.64307L2.41716 15.3097L2.41635 15.3122C2.32453 15.4712 2.27599 15.6518 2.27637 15.8354C2.27678 16.019 2.32555 16.1993 2.41797 16.3579C2.51044 16.5164 2.64339 16.648 2.8029 16.7388C2.96256 16.8295 3.14416 16.8763 3.3278 16.8747H16.666L16.8019 16.8657C16.9369 16.8478 17.0674 16.8033 17.186 16.7347C17.3442 16.6433 17.4756 16.512 17.5669 16.3538C17.6582 16.1955 17.7061 16.0157 17.7061 15.833ZM18.9561 15.833C18.9561 16.2349 18.8508 16.6299 18.6501 16.978C18.4492 17.3263 18.1599 17.6158 17.8119 17.8171C17.4638 18.0183 17.0688 18.1243 16.6668 18.1247H3.33269C2.93073 18.1272 2.53475 18.0239 2.18523 17.8252C1.83418 17.6256 1.54237 17.3366 1.33887 16.9878C1.13536 16.6389 1.02733 16.2426 1.02637 15.8387C1.02548 15.4347 1.13115 15.0371 1.33318 14.6872L7.99903 3.02295C8.19881 2.67134 8.48784 2.37863 8.83724 2.17497C9.18746 1.9709 9.58589 1.86331 9.99122 1.86328C10.3966 1.86328 10.7949 1.97087 11.1452 2.17497C11.4946 2.37861 11.7836 2.67132 11.9834 3.02295L18.6493 14.6872C18.8503 15.0354 18.956 15.4309 18.9561 15.833Z" fill="#737373"/>
<path d="M9.3747 10.8332V7.49986C9.3747 7.15468 9.65452 6.87486 9.9997 6.87486C10.3449 6.87486 10.6247 7.15468 10.6247 7.49986V10.8332C10.6247 11.1784 10.3449 11.4582 9.9997 11.4582C9.65452 11.4582 9.3747 11.1784 9.3747 10.8332Z" fill="#737373"/>
<path d="M10.0078 13.5415C10.353 13.5415 10.6328 13.8214 10.6328 14.1665C10.6328 14.5117 10.353 14.7915 10.0078 14.7915H9.9997C9.65452 14.7915 9.3747 14.5117 9.3747 14.1665C9.3747 13.8214 9.65452 13.5415 9.9997 13.5415H10.0078Z" fill="#737373"/>
</svg>
