<svg width="20" height="20" viewBox="0 0 20 20" fill="none" xmlns="http://www.w3.org/2000/svg">
<path d="M17.7087 9.99935C17.7087 5.74215 14.2575 2.29102 10.0003 2.29102C5.74313 2.29102 2.29199 5.74215 2.29199 9.99935C2.29199 14.2565 5.74313 17.7077 10.0003 17.7077C14.2575 17.7077 17.7087 14.2565 17.7087 9.99935ZM18.9587 9.99935C18.9587 14.9469 14.9479 18.9577 10.0003 18.9577C5.05277 18.9577 1.04199 14.9469 1.04199 9.99935C1.04199 5.0518 5.05277 1.04102 10.0003 1.04102C14.9479 1.04102 18.9587 5.0518 18.9587 9.99935Z" fill="#737373"/>
<path d="M11.8753 8.33268C11.8753 7.29715 11.0359 6.45768 10.0003 6.45768C8.96479 6.45768 8.12533 7.29715 8.12533 8.33268C8.12533 9.36822 8.96479 10.2077 10.0003 10.2077C11.0359 10.2077 11.8753 9.36822 11.8753 8.33268ZM13.1253 8.33268C13.1253 10.0586 11.7262 11.4577 10.0003 11.4577C8.27444 11.4577 6.87533 10.0586 6.87533 8.33268C6.87533 6.60679 8.27444 5.20768 10.0003 5.20768C11.7262 5.20768 13.1253 6.60679 13.1253 8.33268Z" fill="#737373"/>
<path d="M13.542 17.2178V15.8327C13.542 15.5564 13.4322 15.2915 13.2368 15.0962C13.0415 14.9008 12.7766 14.791 12.5003 14.791H7.50033C7.22406 14.791 6.95919 14.9008 6.76383 15.0962C6.56848 15.2915 6.45866 15.5564 6.45866 15.8327V17.2178C6.45861 17.5629 6.17881 17.8428 5.83366 17.8428C5.48851 17.8428 5.20871 17.5629 5.20866 17.2178V15.8327C5.20866 15.2249 5.45027 14.6422 5.88005 14.2124C6.30982 13.7826 6.89254 13.541 7.50033 13.541H12.5003C13.1081 13.541 13.6908 13.7826 14.1206 14.2124C14.5504 14.6422 14.792 15.2249 14.792 15.8327V17.2178C14.7919 17.5629 14.5121 17.8428 14.167 17.8428C13.8218 17.8428 13.542 17.5629 13.542 17.2178Z" fill="#737373"/>
</svg>
