<svg width="24" height="24" viewBox="0 0 24 24" fill="none" xmlns="http://www.w3.org/2000/svg">
<path d="M1.25 16.9999V6.99994C1.25 6.2706 1.53994 5.57133 2.05566 5.05561C2.57139 4.53988 3.27065 4.24994 4 4.24994H9C9.41421 4.24994 9.75 4.58573 9.75 4.99994C9.75 5.41416 9.41421 5.74994 9 5.74994H4C3.66848 5.74994 3.35063 5.88173 3.11621 6.11615C2.88179 6.35057 2.75 6.66842 2.75 6.99994V16.9999C2.75 17.3315 2.88179 17.6493 3.11621 17.8837C3.35063 18.1182 3.66848 18.2499 4 18.2499H11C11.4142 18.2499 11.75 18.5857 11.75 18.9999C11.75 19.4142 11.4142 19.7499 11 19.7499H4C3.27065 19.7499 2.57139 19.46 2.05566 18.9443C1.53994 18.4286 1.25 17.7293 1.25 16.9999Z" fill="#333333"/>
<path d="M21.25 16.9999V6.99994C21.25 6.66842 21.1182 6.35057 20.8838 6.11615C20.6494 5.88173 20.3315 5.74994 20 5.74994H13C12.5858 5.74994 12.25 5.41416 12.25 4.99994C12.25 4.58573 12.5858 4.24994 13 4.24994H20C20.7293 4.24994 21.4286 4.53988 21.9443 5.05561C22.4601 5.57133 22.75 6.2706 22.75 6.99994V16.9999C22.75 17.7293 22.4601 18.4286 21.9443 18.9443C21.4286 19.46 20.7293 19.7499 20 19.7499H15C14.5858 19.7499 14.25 19.4142 14.25 18.9999C14.25 18.5857 14.5858 18.2499 15 18.2499H20C20.3315 18.2499 20.6494 18.1182 20.8838 17.8837C21.1182 17.6493 21.25 17.3315 21.25 16.9999Z" fill="#333333"/>
<path d="M14.25 11.9999C14.25 10.7573 13.2426 9.74994 12 9.74994C10.7574 9.74994 9.75 10.7573 9.75 11.9999C9.75 13.2426 10.7574 14.2499 12 14.2499C13.2426 14.2499 14.25 13.2426 14.25 11.9999ZM15.75 11.9999C15.75 14.071 14.0711 15.7499 12 15.7499C9.92893 15.7499 8.25 14.071 8.25 11.9999C8.25 9.92888 9.92893 8.24994 12 8.24994C14.0711 8.24994 15.75 9.92888 15.75 11.9999Z" fill="#333333"/>
<path d="M17.4697 15.4697C17.7626 15.1768 18.2374 15.1768 18.5303 15.4697C18.8232 15.7626 18.8232 16.2373 18.5303 16.5302L16.0605 18.9999L18.5303 21.4697C18.8232 21.7626 18.8232 22.2373 18.5303 22.5302C18.2374 22.8231 17.7626 22.8231 17.4697 22.5302L14.4697 19.5302C14.1768 19.2373 14.1768 18.7626 14.4697 18.4697L17.4697 15.4697Z" fill="#333333"/>
<path d="M5.46973 1.46967C5.76262 1.17678 6.23738 1.17678 6.53027 1.46967L9.53027 4.46967C9.82317 4.76256 9.82317 5.23732 9.53027 5.53022L6.53027 8.53022C6.23738 8.82311 5.76262 8.82311 5.46973 8.53022C5.17683 8.23732 5.17683 7.76256 5.46973 7.46967L7.93945 4.99994L5.46973 2.53022C5.17683 2.23732 5.17683 1.76256 5.46973 1.46967Z" fill="#333333"/>
</svg>
